<svg xmlns="http://www.w3.org/2000/svg" width="400" height="400">
  <rect width="400" height="400" fill="transparent"/>
  <circle cx="20" cy="30" r="0.8" fill="white" opacity="0.8"/>
  <circle cx="40" cy="70" r="0.6" fill="white" opacity="0.6"/>
  <circle cx="60" cy="25" r="0.4" fill="white" opacity="0.7"/>
  <circle cx="80" cy="90" r="0.7" fill="white" opacity="0.8"/>
  <circle cx="100" cy="40" r="0.5" fill="white" opacity="0.6"/>
  <circle cx="120" cy="60" r="0.8" fill="white" opacity="0.7"/>
  <circle cx="140" cy="30" r="0.6" fill="white" opacity="0.8"/>
  <circle cx="160" cy="80" r="0.4" fill="white" opacity="0.6"/>
  <circle cx="180" cy="50" r="0.7" fill="white" opacity="0.7"/>
  <circle cx="200" cy="70" r="0.5" fill="white" opacity="0.8"/>
  <circle cx="220" cy="20" r="0.8" fill="white" opacity="0.6"/>
  <circle cx="240" cy="90" r="0.6" fill="white" opacity="0.7"/>
  <circle cx="260" cy="40" r="0.4" fill="white" opacity="0.8"/>
  <circle cx="280" cy="60" r="0.7" fill="white" opacity="0.6"/>
  <circle cx="300" cy="30" r="0.5" fill="white" opacity="0.7"/>
  <circle cx="320" cy="80" r="0.8" fill="white" opacity="0.8"/>
  <circle cx="340" cy="50" r="0.6" fill="white" opacity="0.6"/>
  <circle cx="360" cy="70" r="0.4" fill="white" opacity="0.7"/>
  <circle cx="380" cy="20" r="0.7" fill="white" opacity="0.8"/>
  <circle cx="10" cy="100" r="0.5" fill="white" opacity="0.6"/>
  <circle cx="30" cy="120" r="0.8" fill="white" opacity="0.7"/>
  <circle cx="50" cy="140" r="0.6" fill="white" opacity="0.8"/>
  <circle cx="70" cy="160" r="0.4" fill="white" opacity="0.6"/>
  <circle cx="90" cy="180" r="0.7" fill="white" opacity="0.7"/>
  <circle cx="110" cy="200" r="0.5" fill="white" opacity="0.8"/>
  <circle cx="130" cy="220" r="0.8" fill="white" opacity="0.6"/>
  <circle cx="150" cy="240" r="0.6" fill="white" opacity="0.7"/>
  <circle cx="170" cy="260" r="0.4" fill="white" opacity="0.8"/>
  <circle cx="190" cy="280" r="0.7" fill="white" opacity="0.6"/>
  <circle cx="210" cy="300" r="0.5" fill="white" opacity="0.7"/>
  <circle cx="230" cy="320" r="0.8" fill="white" opacity="0.8"/>
  <circle cx="250" cy="340" r="0.6" fill="white" opacity="0.6"/>
  <circle cx="270" cy="360" r="0.4" fill="white" opacity="0.7"/>
  <circle cx="290" cy="380" r="0.7" fill="white" opacity="0.8"/>
  <circle cx="310" cy="10" r="0.5" fill="white" opacity="0.6"/>
  <circle cx="330" cy="30" r="0.8" fill="white" opacity="0.7"/>
  <circle cx="350" cy="50" r="0.6" fill="white" opacity="0.8"/>
  <circle cx="370" cy="70" r="0.4" fill="white" opacity="0.6"/>
  <circle cx="390" cy="90" r="0.7" fill="white" opacity="0.7"/>
</svg>

